VIDEO INFO:


Format                           : Matroska
Format version                   : Version 2
File size                        : 4.37 GiB
Duration                         : 1h 53mn
Overall bit rate                 : 5 531 Kbps
Encoded date                     : UTC 2011-09-13 22:19:46
Writing application              : mkvmerge v4.9.1 ('Ich will') gemaakt op Jul 11 2011 23:53:15
Writing library                  : libebml v1.2.1 + libmatroska v1.1.1

Video
ID                               : 1
Format                           : AVC
Format/Info                      : Advanced Video Codec
Format profile                   : High@L3.1
Format settings, CABAC           : Yes
Format settings, ReFrames        : 3 frames
Codec ID                         : V_MPEG4/ISO/AVC
Duration                         : 1h 53mn
Bit rate                         : 4 020 Kbps
Width                            : 1 280 pixels
Height                           : 528 pixels
Display aspect ratio             : 2.40:1
Frame rate                       : 23.976 fps
Color space                      : YUV
Chroma subsampling               : 4:2:0
Bit depth                        : 8 bits
Scan type                        : Progressive
Bits/(Pixel*Frame)               : 0.248
Stream size                      : 3.09 GiB (71%)
Writing library                  : x264 core 67 r1148M 400740b
Encoding settings                : cabac=1 / ref=3 / deblock=1:-2:-1 / analyse=0x3:0x113 / me=umh / subme=6 / psy_rd=1.0:0.0 / mixed_ref=0 / me_range=12 / chroma_me=1 / trellis=1 / 8x8dct=1 / cqm=0 / deadzone=21,11 / chroma_qp_offset=-2 / threads=4 / nr=0 / decimate=1 / mbaff=0 / bframes=16 / b_pyramid=1 / b_adapt=1 / b_bias=0 / direct=3 / wpredb=1 / keyint=250 / keyint_min=25 / scenecut=40 / rc=2pass / bitrate=4020 / ratetol=1.0 / qcomp=0.60 / qpmin=10 / qpmax=51 / qpstep=4 / cplxblur=20.0 / qblur=0.5 / ip_ratio=1.40 / pb_ratio=1.30 / aq=1:1.00
Language                         : English

Audio
ID                               : 2
Format                           : DTS
Format/Info                      : Digital Theater Systems
Codec ID                         : A_DTS
Duration                         : 1h 53mn
Bit rate mode                    : Constant
Bit rate                         : 1 510 Kbps
Channel(s)                       : 6 channels
Channel positions                : Front: L C R, Side: L R, LFE
Sampling rate                    : 48.0 KHz
Bit depth                        : 24 bits
Compression mode                 : Lossy
Stream size                      : 1.19 GiB (27%)
Language                         : English

Text
ID                               : 3
Format                           : UTF-8
Codec ID                         : S_TEXT/UTF8
Codec ID/Info                    : UTF-8 Plain Text
Language                         : Dutch

------------------------------------

Verenigde Staten
Actie / Thriller
113 minuten

geregisseerd door Jan de Bont
met Helen Hunt, Bill Paxton en Philip Seymour Hoffman

Twee wetenschappers die alles in het werk stellen om de waarschuwingstijd te vergroten van een twister, willen elektronische meetapparatuur in het hart van de tornado brengen om hem zo beter te kunnen bestuderen en de weg die hij aflegt te kunnen voorspellen. Dit kan echter alleen door recht in haar dodelijke pad te gaan staan en te proberen het pas op het allerlaatste moment uit de weg te gaan...

-Ondertiteling (nederlands) in film met de mogelijkheid deze aan/uit te zetten.